<svg width="135" height="141" viewBox="0 0 135 141" fill="none" xmlns="http://www.w3.org/2000/svg">
<path fill-rule="evenodd" clip-rule="evenodd" d="M46.875 0H134.25V17.375H66.6875V42.9375H124.062V59.25H66.6875V91.6875H46.875V82.9992C57.118 77.0164 63.9997 65.9056 63.9997 53.1875C63.9997 40.4694 57.118 29.3586 46.875 23.3758V0Z" fill="white"/>
<path d="M0 117.971C0 105.425 10.1554 95.2542 22.6826 95.2542H88.3174C100.845 95.2542 111 105.425 111 117.971C111 130.517 100.845 140.687 88.3174 140.687H22.6826C10.1554 140.687 0 130.517 0 117.971Z" fill="#F06D45"/>
<path d="M0 53.2042C0 37.4548 12.7482 24.6875 28.4739 24.6875H29.4391C45.1648 24.6875 57.913 37.4548 57.913 53.2042C57.913 68.9535 45.1648 81.7208 29.4391 81.7208H28.4739C12.7482 81.7208 0 68.9535 0 53.2042Z" fill="#F06D45"/>
<path d="M0 117.971C0 105.425 10.1554 95.2542 22.6826 95.2542H88.3174C100.845 95.2542 111 105.425 111 117.971C111 130.517 100.845 140.687 88.3174 140.687H22.6826C10.1554 140.687 0 130.517 0 117.971Z" fill="url(#paint0_linear_2186_403)"/>
<path d="M0 53.2042C0 37.4548 12.7482 24.6875 28.4739 24.6875H29.4391C45.1648 24.6875 57.913 37.4548 57.913 53.2042C57.913 68.9535 45.1648 81.7208 29.4391 81.7208H28.4739C12.7482 81.7208 0 68.9535 0 53.2042Z" fill="url(#paint1_linear_2186_403)"/>
<defs>
<linearGradient id="paint0_linear_2186_403" x1="60" y1="42.6875" x2="-1.91132" y2="157.978" gradientUnits="userSpaceOnUse">
<stop stop-color="#F06D45"/>
<stop offset="1" stop-color="#F0B342"/>
</linearGradient>
<linearGradient id="paint1_linear_2186_403" x1="60" y1="42.6875" x2="-1.91132" y2="157.978" gradientUnits="userSpaceOnUse">
<stop stop-color="#F06D45"/>
<stop offset="1" stop-color="#F0B342"/>
</linearGradient>
</defs>
</svg>
