<svg width="887" height="147" viewBox="0 0 887 147" fill="none" xmlns="http://www.w3.org/2000/svg">
<path fill-rule="evenodd" clip-rule="evenodd" d="M177.742 0.3125H159.243V104H177.742V0.3125ZM134.25 6.3125H46.875V29.6883C57.118 35.6711 63.9997 46.7819 63.9997 59.5C63.9997 72.2181 57.118 83.3289 46.875 89.3117V98H66.6875V65.5625H124.062V49.25H66.6875V23.6875H134.25V6.3125ZM209.173 30.1875H227.61V66.1875C227.61 69.6042 227.985 72.7292 228.735 75.5625C229.485 78.3542 230.756 80.75 232.548 82.75C234.381 84.75 236.798 86.3125 239.798 87.4375C242.839 88.5208 246.61 89.0625 251.11 89.0625C253.235 89.0625 255.381 88.8333 257.548 88.375C259.756 87.9167 261.86 87.2917 263.86 86.5C265.86 85.6667 267.714 84.6875 269.423 83.5625C271.173 82.4375 272.673 81.2083 273.923 79.875V30.1875H292.423V104H273.923V97.6875C269.381 100.396 264.818 102.333 260.235 103.5C255.652 104.667 251.298 105.25 247.173 105.25C240.423 105.25 234.631 104.438 229.798 102.812C225.006 101.188 221.068 98.8333 217.985 95.75C214.943 92.625 212.714 88.8125 211.298 84.3125C209.881 79.7708 209.173 74.6042 209.173 68.8125V30.1875ZM312.228 30.1875L342.728 67.125L313.353 104H336.415L354.103 80.9375L373.165 104H396.79L366.29 67.0625L394.978 30.1875H371.915L354.353 52.6875L335.853 30.1875H312.228ZM411.845 67.125C411.845 61.8333 412.908 56.875 415.033 52.25C417.199 47.625 420.262 43.5833 424.22 40.125C428.22 36.6667 433.033 33.9375 438.658 31.9375C444.324 29.9375 450.678 28.9375 457.72 28.9375C464.762 28.9375 471.095 29.9375 476.72 31.9375C482.387 33.9375 487.199 36.6667 491.158 40.125C495.158 43.5833 498.22 47.625 500.345 52.25C502.512 56.875 503.595 61.8333 503.595 67.125C503.595 72.4167 502.512 77.375 500.345 82C498.22 86.625 495.158 90.6667 491.158 94.125C487.199 97.5833 482.387 100.312 476.72 102.312C471.095 104.312 464.762 105.312 457.72 105.312C450.678 105.312 444.324 104.312 438.658 102.312C433.033 100.312 428.22 97.5833 424.22 94.125C420.262 90.6667 417.199 86.625 415.033 82C412.908 77.375 411.845 72.4167 411.845 67.125ZM431.283 67.125C431.283 70.0833 431.866 72.8958 433.033 75.5625C434.241 78.1875 435.97 80.5208 438.22 82.5625C440.512 84.5625 443.283 86.1667 446.533 87.375C449.824 88.5417 453.553 89.125 457.72 89.125C461.887 89.125 465.595 88.5417 468.845 87.375C472.137 86.1667 474.908 84.5625 477.158 82.5625C479.449 80.5208 481.178 78.1875 482.345 75.5625C483.553 72.8958 484.158 70.0833 484.158 67.125C484.158 64.1667 483.553 61.3542 482.345 58.6875C481.178 56.0208 479.449 53.6875 477.158 51.6875C474.908 49.6458 472.137 48.0417 468.845 46.875C465.595 45.6667 461.887 45.0625 457.72 45.0625C453.553 45.0625 449.824 45.6667 446.533 46.875C443.283 48.0417 440.512 49.6458 438.22 51.6875C435.97 53.6875 434.241 56.0208 433.033 58.6875C431.866 61.3542 431.283 64.1667 431.283 67.125ZM548.962 0.3125H530.462V104H548.962V0.3125ZM590.143 20.1875C588.309 20.1875 586.643 19.9375 585.143 19.4375C583.684 18.8958 582.434 18.1875 581.393 17.3125C580.351 16.3958 579.538 15.3542 578.955 14.1875C578.413 12.9792 578.143 11.7083 578.143 10.375C578.143 9 578.413 7.72917 578.955 6.5625C579.538 5.35417 580.351 4.3125 581.393 3.4375C582.434 2.5625 583.684 1.875 585.143 1.375C586.643 0.833333 588.309 0.5625 590.143 0.5625C592.018 0.5625 593.684 0.833333 595.143 1.375C596.643 1.875 597.913 2.5625 598.955 3.4375C599.997 4.3125 600.788 5.35417 601.33 6.5625C601.913 7.72917 602.205 9 602.205 10.375C602.205 11.7083 601.913 12.9792 601.33 14.1875C600.788 15.3542 599.997 16.3958 598.955 17.3125C597.913 18.1875 596.643 18.8958 595.143 19.4375C593.684 19.9375 592.018 20.1875 590.143 20.1875ZM628.573 45.625H666.385L621.198 104H698.198V88.625H655.198L700.698 30.25H628.573V45.625ZM720.253 66.875C720.253 61.875 721.273 57.1042 723.315 52.5625C725.357 47.9792 728.294 43.9375 732.128 40.4375C735.961 36.9375 740.648 34.1458 746.19 32.0625C751.773 29.9792 758.107 28.9375 765.19 28.9375C772.232 28.9375 778.565 30 784.19 32.125C789.857 34.2083 794.648 37.0833 798.565 40.75C802.523 44.4167 805.544 48.7292 807.628 53.6875C809.753 58.6458 810.815 63.9583 810.815 69.625C810.815 70.3333 810.794 71.1042 810.753 71.9375C810.753 72.7292 810.711 73.4583 810.628 74.125H740.878C741.669 76.3333 742.94 78.3542 744.69 80.1875C746.482 82.0208 748.711 83.6042 751.378 84.9375C754.044 86.2708 757.128 87.3125 760.628 88.0625C764.128 88.7708 768.003 89.125 772.253 89.125C776.503 89.125 780.732 88.6875 784.94 87.8125C789.148 86.8958 793.169 85.75 797.003 84.375L803.253 98.5C800.836 99.625 798.378 100.625 795.878 101.5C793.419 102.333 790.836 103.042 788.128 103.625C785.461 104.167 782.648 104.583 779.69 104.875C776.773 105.167 773.69 105.312 770.44 105.312C762.148 105.312 754.878 104.312 748.628 102.312C742.378 100.312 737.148 97.5833 732.94 94.125C728.732 90.6667 725.565 86.6042 723.44 81.9375C721.315 77.2708 720.253 72.25 720.253 66.875ZM580.893 30.25H599.393V104H580.893V30.25ZM791.19 59.6875C790.523 57.6458 789.482 55.75 788.065 54C786.69 52.2083 784.961 50.6667 782.878 49.375C780.794 48.0417 778.378 47 775.628 46.25C772.878 45.5 769.857 45.125 766.565 45.125C763.065 45.125 759.878 45.5208 757.003 46.3125C754.128 47.1042 751.607 48.1667 749.44 49.5C747.273 50.8333 745.461 52.375 744.003 54.125C742.586 55.875 741.544 57.7292 740.878 59.6875H791.19Z" fill="white"/>
<path d="M0 124.283C0 111.737 10.1554 101.567 22.6826 101.567H88.3174C100.845 101.567 111 111.737 111 124.283C111 136.829 100.845 147 88.3174 147H22.6826C10.1554 147 0 136.829 0 124.283Z" fill="#F06D45"/>
<path d="M0 59.5167C0 43.7673 12.7482 31 28.4739 31H29.4391C45.1648 31 57.913 43.7673 57.913 59.5167C57.913 75.266 45.1648 88.0333 29.4391 88.0333H28.4739C12.7482 88.0333 0 75.266 0 59.5167Z" fill="#F06D45"/>
<path d="M0 124.283C0 111.737 10.1554 101.567 22.6826 101.567H88.3174C100.845 101.567 111 111.737 111 124.283C111 136.829 100.845 147 88.3174 147H22.6826C10.1554 147 0 136.829 0 124.283Z" fill="url(#paint0_linear_2184_339)"/>
<path d="M0 59.5167C0 43.7673 12.7482 31 28.4739 31H29.4391C45.1648 31 57.913 43.7673 57.913 59.5167C57.913 75.266 45.1648 88.0333 29.4391 88.0333H28.4739C12.7482 88.0333 0 75.266 0 59.5167Z" fill="url(#paint1_linear_2184_339)"/>
<path d="M827.1 105.92C825.03 105.92 823.267 105.269 821.81 103.965C820.43 102.662 819.74 100.86 819.74 98.5604C819.74 96.2604 820.43 94.4587 821.81 93.1554C823.267 91.852 825.03 91.2004 827.1 91.2004C829.17 91.2004 830.895 91.852 832.275 93.1554C833.732 94.4587 834.46 96.2604 834.46 98.5604C834.46 100.86 833.732 102.662 832.275 103.965C830.895 105.269 829.17 105.92 827.1 105.92Z" fill="#F06D45"/>
<path d="M846.57 64.0404C845.503 64.0404 844.586 63.699 843.818 63.0164C843.092 62.291 842.73 61.3524 842.73 60.2004C842.73 59.0484 843.092 58.131 843.818 57.4484C844.586 56.723 845.503 56.3604 846.57 56.3604C847.679 56.3604 848.596 56.723 849.322 57.4484C850.047 58.131 850.41 59.0484 850.41 60.2004C850.41 61.3524 850.047 62.291 849.322 63.0164C848.596 63.699 847.679 64.0404 846.57 64.0404ZM843.626 105V81.1924C843.626 80.339 843.604 79.2297 843.562 77.8644C843.562 76.499 843.519 75.155 843.434 73.8324C843.391 72.5097 843.284 71.4644 843.114 70.6964L843.242 70.1844H849.514V105H843.626Z" fill="#F06D45"/>
<path d="M872.443 105.768C867.451 105.768 863.697 104.872 861.179 103.08C858.705 101.246 857.467 98.4724 857.467 94.7604C857.467 92.2857 858.065 90.2377 859.259 88.6164C860.497 86.995 862.225 85.779 864.443 84.9684C866.705 84.1577 869.371 83.7524 872.443 83.7524C874.833 83.7524 876.817 83.9657 878.395 84.3924C880.017 84.7764 881.403 85.1604 882.555 85.5444V90.1524C881.403 89.7684 879.974 89.427 878.267 89.1284C876.561 88.787 874.961 88.6164 873.467 88.6164C870.011 88.6164 867.43 89.0644 865.723 89.9604C864.059 90.8564 863.227 92.4564 863.227 94.7604C863.227 96.9364 864.038 98.515 865.659 99.4964C867.281 100.435 869.627 100.904 872.699 100.904C874.406 100.904 876.049 100.776 877.627 100.52C879.206 100.222 880.678 99.8377 882.043 99.3684L880.891 101.096C880.806 100.755 880.721 100.371 880.635 99.9444C880.593 99.5177 880.55 99.0697 880.507 98.6004C880.465 98.131 880.422 97.6404 880.379 97.1284C880.379 96.6164 880.379 96.083 880.379 95.5284V84.0084C880.379 81.2777 879.995 79.251 879.227 77.9284C878.502 76.563 877.393 75.667 875.899 75.2404C874.449 74.771 872.614 74.5364 870.395 74.5364C868.731 74.5364 867.025 74.7497 865.275 75.1764C863.569 75.603 862.203 76.0724 861.179 76.5844H860.667V71.3364C862.203 70.6964 863.91 70.227 865.787 69.9284C867.707 69.587 869.499 69.4164 871.163 69.4164C873.297 69.4164 875.259 69.6084 877.051 69.9924C878.886 70.3764 880.486 71.0804 881.851 72.1044C883.259 73.0857 884.347 74.515 885.115 76.3924C885.883 78.2697 886.267 80.723 886.267 83.7524V92.2004C886.267 93.0537 886.267 94.163 886.267 95.5284C886.31 96.8937 886.353 98.2377 886.395 99.5604C886.481 100.883 886.609 101.928 886.779 102.696L886.651 103.208C885.243 103.72 883.686 104.168 881.979 104.552C880.273 104.936 878.566 105.235 876.859 105.448C875.195 105.662 873.723 105.768 872.443 105.768Z" fill="#F06D45"/>
<defs>
<linearGradient id="paint0_linear_2184_339" x1="60" y1="49" x2="-1.91132" y2="164.291" gradientUnits="userSpaceOnUse">
<stop stop-color="#F06D45"/>
<stop offset="1" stop-color="#F0B342"/>
</linearGradient>
<linearGradient id="paint1_linear_2184_339" x1="60" y1="49" x2="-1.91132" y2="164.291" gradientUnits="userSpaceOnUse">
<stop stop-color="#F06D45"/>
<stop offset="1" stop-color="#F0B342"/>
</linearGradient>
</defs>
</svg>
